<svg xmlns="http://www.w3.org/2000/svg" viewBox="0 0 144 192" width="144" height="192" shape-rendering="crispEdges">
  <g id="dir-down-f1">
    <ellipse cx="24" cy="44" rx="9" ry="2.5" fill="rgba(15,23,42,0.28)" shape-rendering="geometricPrecision"/>
    <rect x="17" y="35" width="4" height="9" fill="#c4eee2"/>
    <rect x="16" y="42" width="5" height="3" fill="#1e293b"/>
    <rect x="27" y="34" width="4" height="7" fill="#8ddbc6"/>
    <rect x="27" y="39" width="5" height="3" fill="#1e293b"/>
    <rect x="17" y="32" width="14" height="4" fill="#c4eee2"/>
    <rect x="17" y="31" width="14" height="2" fill="#363344"/>
    <line x1="18" y1="31" x2="29" y2="34" stroke="#dc2626" stroke-width="1"/>
    <rect x="21" y="29" width="6" height="2" fill="#fff5f2"/>
    <rect x="20" y="26" width="8" height="3" fill="#363344"/>
    <rect x="17" y="25" width="4" height="7" fill="#c4eee2"/>
    <rect x="27" y="25" width="4" height="7" fill="#c4eee2"/>
    <rect x="17" y="30" width="4" height="2" fill="#8ddbc6"/>
    <rect x="27" y="30" width="4" height="2" fill="#8ddbc6"/>
    <rect x="14" y="26" width="3" height="6" fill="#c4eee2"/>
    <rect x="14" y="32" width="3" height="2" fill="#fff5f2"/>
    <rect x="31" y="27" width="3" height="7" fill="#c4eee2"/>
    <rect x="31" y="33" width="3" height="2" fill="#fff5f2"/>
    <polygon points="21,25 27,25 24,30" fill="#dc2626"/>
    <rect x="23" y="28" width="2" height="3" fill="#ef4444"/>
    <rect x="14" y="14" width="20" height="14" fill="#9d174d"/>
    <rect x="13" y="16" width="22" height="11" fill="#f472b6"/>
    <rect x="32" y="13" width="6" height="10" fill="#f472b6"/>
    <rect x="31" y="12" width="3" height="3" fill="#ec4899"/>
    <rect x="16" y="15" width="16" height="11" fill="#fff5f2"/>
    <rect x="17" y="25" width="14" height="2" fill="#ebd9d4"/>
    <rect x="17" y="23" width="3" height="1" fill="#fca5a5"/>
    <rect x="28" y="23" width="3" height="1" fill="#fca5a5"/>
    <rect x="18" y="19" width="4" height="4" fill="#831843"/>
    <rect x="19" y="20" width="3" height="3" fill="#db2777"/>
    <rect x="18" y="19" width="2" height="1" fill="#ffffff"/>
    <rect x="26" y="19" width="4" height="4" fill="#831843"/>
    <rect x="26" y="20" width="3" height="3" fill="#db2777"/>
    <rect x="28" y="19" width="2" height="1" fill="#ffffff"/>
    <rect x="23" y="24" width="2" height="1" fill="#ebd9d4"/>
    <polygon points="15,14 21,14 17,20" fill="#f472b6"/>
    <polygon points="20,14 26,14 22,19" fill="#fbcfe8"/>
    <polygon points="25,14 33,14 31,21" fill="#f472b6"/>
    <rect x="14" y="16" width="2" height="8" fill="#9d174d"/>
    <rect x="32" y="16" width="2" height="8" fill="#9d174d"/>
    <rect x="30" y="12" width="4" height="4" fill="#ec4899"/>
  </g>
  <g id="dir-down-f2">
    <ellipse cx="72" cy="44" rx="9" ry="2.5" fill="rgba(15,23,42,0.28)" shape-rendering="geometricPrecision"/>
    <rect x="66" y="34" width="4" height="8" fill="#c4eee2"/>
    <rect x="65" y="41" width="5" height="3" fill="#1e293b"/>
    <rect x="74" y="34" width="4" height="8" fill="#c4eee2"/>
    <rect x="74" y="41" width="5" height="3" fill="#1e293b"/>
    <rect x="65" y="31" width="14" height="4" fill="#c4eee2"/>
    <rect x="65" y="30" width="14" height="2" fill="#363344"/>
    <line x1="66" y1="30" x2="77" y2="33" stroke="#dc2626" stroke-width="1"/>
    <rect x="69" y="28" width="6" height="2" fill="#fff5f2"/>
    <rect x="68" y="25" width="8" height="3" fill="#363344"/>
    <rect x="65" y="24" width="4" height="7" fill="#c4eee2"/>
    <rect x="75" y="24" width="4" height="7" fill="#c4eee2"/>
    <rect x="65" y="29" width="4" height="2" fill="#8ddbc6"/>
    <rect x="75" y="29" width="4" height="2" fill="#8ddbc6"/>
    <rect x="62" y="25" width="3" height="7" fill="#c4eee2"/>
    <rect x="62" y="31" width="3" height="2" fill="#fff5f2"/>
    <rect x="79" y="25" width="3" height="7" fill="#c4eee2"/>
    <rect x="79" y="31" width="3" height="2" fill="#fff5f2"/>
    <polygon points="69,24 75,24 72,29" fill="#dc2626"/>
    <rect x="71" y="27" width="2" height="3" fill="#ef4444"/>
    <rect x="62" y="13" width="20" height="14" fill="#9d174d"/>
    <rect x="61" y="15" width="22" height="11" fill="#f472b6"/>
    <rect x="80" y="12" width="6" height="10" fill="#f472b6"/>
    <rect x="79" y="11" width="3" height="3" fill="#ec4899"/>
    <rect x="64" y="14" width="16" height="11" fill="#fff5f2"/>
    <rect x="65" y="24" width="14" height="2" fill="#ebd9d4"/>
    <rect x="65" y="22" width="3" height="1" fill="#fca5a5"/>
    <rect x="76" y="22" width="3" height="1" fill="#fca5a5"/>
    <rect x="66" y="18" width="4" height="4" fill="#831843"/>
    <rect x="67" y="19" width="3" height="3" fill="#db2777"/>
    <rect x="66" y="18" width="2" height="1" fill="#ffffff"/>
    <rect x="74" y="18" width="4" height="4" fill="#831843"/>
    <rect x="74" y="19" width="3" height="3" fill="#db2777"/>
    <rect x="76" y="18" width="2" height="1" fill="#ffffff"/>
    <rect x="71" y="23" width="2" height="1" fill="#ebd9d4"/>
    <polygon points="63,13 69,13 65,19" fill="#f472b6"/>
    <polygon points="68,13 74,13 70,18" fill="#fbcfe8"/>
    <polygon points="73,13 81,13 79,20" fill="#f472b6"/>
    <rect x="62" y="15" width="2" height="8" fill="#9d174d"/>
    <rect x="80" y="15" width="2" height="8" fill="#9d174d"/>
    <rect x="78" y="11" width="4" height="4" fill="#ec4899"/>
  </g>
  <g id="dir-down-f3">
    <ellipse cx="120" cy="44" rx="9" ry="2.5" fill="rgba(15,23,42,0.28)" shape-rendering="geometricPrecision"/>
    <rect x="113" y="34" width="4" height="7" fill="#8ddbc6"/>
    <rect x="112" y="39" width="5" height="3" fill="#1e293b"/>
    <rect x="123" y="35" width="4" height="9" fill="#c4eee2"/>
    <rect x="123" y="42" width="5" height="3" fill="#1e293b"/>
    <rect x="113" y="32" width="14" height="4" fill="#c4eee2"/>
    <rect x="113" y="31" width="14" height="2" fill="#363344"/>
    <line x1="114" y1="31" x2="125" y2="34" stroke="#dc2626" stroke-width="1"/>
    <rect x="117" y="29" width="6" height="2" fill="#fff5f2"/>
    <rect x="116" y="26" width="8" height="3" fill="#363344"/>
    <rect x="113" y="25" width="4" height="7" fill="#c4eee2"/>
    <rect x="123" y="25" width="4" height="7" fill="#c4eee2"/>
    <rect x="113" y="30" width="4" height="2" fill="#8ddbc6"/>
    <rect x="123" y="30" width="4" height="2" fill="#8ddbc6"/>
    <rect x="110" y="27" width="3" height="7" fill="#c4eee2"/>
    <rect x="110" y="33" width="3" height="2" fill="#fff5f2"/>
    <rect x="127" y="26" width="3" height="6" fill="#c4eee2"/>
    <rect x="127" y="32" width="3" height="2" fill="#fff5f2"/>
    <polygon points="117,25 123,25 120,30" fill="#dc2626"/>
    <rect x="119" y="28" width="2" height="3" fill="#ef4444"/>
    <rect x="110" y="14" width="20" height="14" fill="#9d174d"/>
    <rect x="109" y="16" width="22" height="11" fill="#f472b6"/>
    <rect x="128" y="13" width="6" height="10" fill="#f472b6"/>
    <rect x="127" y="12" width="3" height="3" fill="#ec4899"/>
    <rect x="112" y="15" width="16" height="11" fill="#fff5f2"/>
    <rect x="113" y="25" width="14" height="2" fill="#ebd9d4"/>
    <rect x="113" y="23" width="3" height="1" fill="#fca5a5"/>
    <rect x="124" y="23" width="3" height="1" fill="#fca5a5"/>
    <rect x="114" y="19" width="4" height="4" fill="#831843"/>
    <rect x="115" y="20" width="3" height="3" fill="#db2777"/>
    <rect x="114" y="19" width="2" height="1" fill="#ffffff"/>
    <rect x="122" y="19" width="4" height="4" fill="#831843"/>
    <rect x="122" y="20" width="3" height="3" fill="#db2777"/>
    <rect x="124" y="19" width="2" height="1" fill="#ffffff"/>
    <rect x="119" y="24" width="2" height="1" fill="#ebd9d4"/>
    <polygon points="111,14 117,14 113,20" fill="#f472b6"/>
    <polygon points="116,14 122,14 118,19" fill="#fbcfe8"/>
    <polygon points="121,14 129,14 127,21" fill="#f472b6"/>
    <rect x="110" y="16" width="2" height="8" fill="#9d174d"/>
    <rect x="128" y="16" width="2" height="8" fill="#9d174d"/>
    <rect x="126" y="12" width="4" height="4" fill="#ec4899"/>
  </g>
  <g id="dir-left-f1">
    <ellipse cx="24" cy="92" rx="9" ry="2.5" fill="rgba(15,23,42,0.28)" shape-rendering="geometricPrecision"/>
    <rect x="18" y="83" width="4" height="9" fill="#c4eee2"/>
    <rect x="16" y="90" width="6" height="3" fill="#1e293b"/>
    <rect x="25" y="82" width="4" height="7" fill="#8ddbc6"/>
    <rect x="25" y="87" width="5" height="3" fill="#1e293b"/>
    <rect x="20" y="79" width="8" height="3" fill="#c4eee2"/>
    <rect x="19" y="78" width="9" height="2" fill="#363344"/>
    <rect x="21" y="74" width="7" height="4" fill="#c4eee2"/>
    <rect x="19" y="75" width="3" height="3" fill="#363344"/>
    <rect x="18" y="75" width="3" height="7" fill="#c4eee2"/>
    <rect x="18" y="81" width="3" height="2" fill="#fff5f2"/>
    <rect x="26" y="75" width="4" height="2" fill="#dc2626"/>
    <rect x="18" y="62" width="13" height="13" fill="#9d174d"/>
    <rect x="16" y="63" width="10" height="10" fill="#fff5f2"/>
    <rect x="17" y="66" width="3" height="4" fill="#831843"/>
    <rect x="17" y="67" width="2" height="3" fill="#db2777"/>
    <rect x="18" y="66" width="1" height="1" fill="#ffffff"/>
    <rect x="16" y="70" width="2" height="1" fill="#fca5a5"/>
    <polygon points="15,62 22,62 17,68" fill="#f472b6"/>
    <rect x="23" y="64" width="6" height="10" fill="#f472b6"/>
  </g>
  <g id="dir-left-f2">
    <ellipse cx="72" cy="92" rx="9" ry="2.5" fill="rgba(15,23,42,0.28)" shape-rendering="geometricPrecision"/>
    <rect x="69" y="82" width="5" height="8" fill="#c4eee2"/>
    <rect x="67" y="89" width="7" height="3" fill="#1e293b"/>
    <rect x="68" y="78" width="8" height="3" fill="#c4eee2"/>
    <rect x="67" y="77" width="9" height="2" fill="#363344"/>
    <rect x="69" y="73" width="7" height="4" fill="#c4eee2"/>
    <rect x="67" y="74" width="3" height="3" fill="#363344"/>
    <rect x="70" y="74" width="3" height="7" fill="#c4eee2"/>
    <rect x="70" y="80" width="3" height="2" fill="#fff5f2"/>
    <rect x="74" y="74" width="4" height="2" fill="#dc2626"/>
    <rect x="66" y="61" width="13" height="13" fill="#9d174d"/>
    <rect x="64" y="62" width="10" height="10" fill="#fff5f2"/>
    <rect x="65" y="65" width="3" height="4" fill="#831843"/>
    <rect x="65" y="66" width="2" height="3" fill="#db2777"/>
    <rect x="66" y="65" width="1" height="1" fill="#ffffff"/>
    <rect x="64" y="69" width="2" height="1" fill="#fca5a5"/>
    <polygon points="63,61 70,61 65,67" fill="#f472b6"/>
    <rect x="71" y="63" width="6" height="10" fill="#f472b6"/>
  </g>
  <g id="dir-left-f3">
    <ellipse cx="120" cy="92" rx="9" ry="2.5" fill="rgba(15,23,42,0.28)" shape-rendering="geometricPrecision"/>
    <rect x="120" y="83" width="4" height="9" fill="#c4eee2"/>
    <rect x="119" y="90" width="6" height="3" fill="#1e293b"/>
    <rect x="113" y="82" width="4" height="7" fill="#8ddbc6"/>
    <rect x="112" y="87" width="5" height="3" fill="#1e293b"/>
    <rect x="116" y="79" width="8" height="3" fill="#c4eee2"/>
    <rect x="115" y="78" width="9" height="2" fill="#363344"/>
    <rect x="117" y="74" width="7" height="4" fill="#c4eee2"/>
    <rect x="115" y="75" width="3" height="3" fill="#363344"/>
    <rect x="121" y="75" width="3" height="7" fill="#c4eee2"/>
    <rect x="121" y="81" width="3" height="2" fill="#fff5f2"/>
    <rect x="122" y="75" width="4" height="2" fill="#dc2626"/>
    <rect x="114" y="62" width="13" height="13" fill="#9d174d"/>
    <rect x="112" y="63" width="10" height="10" fill="#fff5f2"/>
    <rect x="113" y="66" width="3" height="4" fill="#831843"/>
    <rect x="113" y="67" width="2" height="3" fill="#db2777"/>
    <rect x="114" y="66" width="1" height="1" fill="#ffffff"/>
    <rect x="112" y="70" width="2" height="1" fill="#fca5a5"/>
    <polygon points="111,62 118,62 113,68" fill="#f472b6"/>
    <rect x="119" y="64" width="6" height="10" fill="#f472b6"/>
  </g>
  <g id="dir-right-f1">
    <ellipse cx="24" cy="140" rx="9" ry="2.5" fill="rgba(15,23,42,0.28)" shape-rendering="geometricPrecision"/>
    <rect x="26" y="131" width="4" height="9" fill="#c4eee2"/>
    <rect x="26" y="138" width="6" height="3" fill="#1e293b"/>
    <rect x="19" y="130" width="4" height="7" fill="#8ddbc6"/>
    <rect x="18" y="135" width="5" height="3" fill="#1e293b"/>
    <rect x="20" y="127" width="8" height="3" fill="#c4eee2"/>
    <rect x="20" y="126" width="9" height="2" fill="#363344"/>
    <rect x="20" y="122" width="7" height="4" fill="#c4eee2"/>
    <rect x="26" y="123" width="3" height="3" fill="#363344"/>
    <rect x="27" y="123" width="3" height="7" fill="#c4eee2"/>
    <rect x="28" y="129" width="3" height="2" fill="#fff5f2"/>
    <rect x="18" y="123" width="4" height="2" fill="#dc2626"/>
    <rect x="17" y="110" width="13" height="13" fill="#9d174d"/>
    <rect x="22" y="111" width="10" height="10" fill="#fff5f2"/>
    <rect x="28" y="114" width="3" height="4" fill="#831843"/>
    <rect x="29" y="115" width="2" height="3" fill="#db2777"/>
    <rect x="29" y="114" width="1" height="1" fill="#ffffff"/>
    <rect x="30" y="118" width="2" height="1" fill="#fca5a5"/>
    <polygon points="33,110 26,110 31,116" fill="#f472b6"/>
    <rect x="19" y="112" width="6" height="10" fill="#f472b6"/>
  </g>
  <g id="dir-right-f2">
    <ellipse cx="72" cy="140" rx="9" ry="2.5" fill="rgba(15,23,42,0.28)" shape-rendering="geometricPrecision"/>
    <rect x="70" y="130" width="5" height="8" fill="#c4eee2"/>
    <rect x="70" y="137" width="7" height="3" fill="#1e293b"/>
    <rect x="68" y="126" width="8" height="3" fill="#c4eee2"/>
    <rect x="68" y="125" width="9" height="2" fill="#363344"/>
    <rect x="68" y="121" width="7" height="4" fill="#c4eee2"/>
    <rect x="74" y="122" width="3" height="3" fill="#363344"/>
    <rect x="71" y="122" width="3" height="7" fill="#c4eee2"/>
    <rect x="72" y="128" width="3" height="2" fill="#fff5f2"/>
    <rect x="66" y="122" width="4" height="2" fill="#dc2626"/>
    <rect x="65" y="109" width="13" height="13" fill="#9d174d"/>
    <rect x="70" y="110" width="10" height="10" fill="#fff5f2"/>
    <rect x="76" y="113" width="3" height="4" fill="#831843"/>
    <rect x="77" y="114" width="2" height="3" fill="#db2777"/>
    <rect x="77" y="113" width="1" height="1" fill="#ffffff"/>
    <rect x="78" y="117" width="2" height="1" fill="#fca5a5"/>
    <polygon points="81,109 74,109 79,115" fill="#f472b6"/>
    <rect x="67" y="111" width="6" height="10" fill="#f472b6"/>
  </g>
  <g id="dir-right-f3">
    <ellipse cx="120" cy="140" rx="9" ry="2.5" fill="rgba(15,23,42,0.28)" shape-rendering="geometricPrecision"/>
    <rect x="116" y="131" width="4" height="9" fill="#c4eee2"/>
    <rect x="115" y="138" width="6" height="3" fill="#1e293b"/>
    <rect x="123" y="130" width="4" height="7" fill="#8ddbc6"/>
    <rect x="123" y="135" width="5" height="3" fill="#1e293b"/>
    <rect x="116" y="127" width="8" height="3" fill="#c4eee2"/>
    <rect x="116" y="126" width="9" height="2" fill="#363344"/>
    <rect x="116" y="122" width="7" height="4" fill="#c4eee2"/>
    <rect x="122" y="123" width="3" height="3" fill="#363344"/>
    <rect x="116" y="123" width="3" height="7" fill="#c4eee2"/>
    <rect x="117" y="129" width="3" height="2" fill="#fff5f2"/>
    <rect x="114" y="123" width="4" height="2" fill="#dc2626"/>
    <rect x="113" y="110" width="13" height="13" fill="#9d174d"/>
    <rect x="118" y="111" width="10" height="10" fill="#fff5f2"/>
    <rect x="124" y="114" width="3" height="4" fill="#831843"/>
    <rect x="125" y="115" width="2" height="3" fill="#db2777"/>
    <rect x="125" y="114" width="1" height="1" fill="#ffffff"/>
    <rect x="126" y="118" width="2" height="1" fill="#fca5a5"/>
    <polygon points="129,110 122,110 127,116" fill="#f472b6"/>
    <rect x="115" y="112" width="6" height="10" fill="#f472b6"/>
  </g>
  <g id="dir-up-f1">
    <ellipse cx="24" cy="188" rx="9" ry="2.5" fill="rgba(15,23,42,0.28)" shape-rendering="geometricPrecision"/>
    <rect x="17" y="179" width="4" height="8" fill="#c4eee2"/>
    <rect x="17" y="186" width="4" height="3" fill="#1e293b"/>
    <rect x="27" y="178" width="4" height="7" fill="#8ddbc6"/>
    <rect x="27" y="183" width="4" height="3" fill="#1e293b"/>
    <rect x="17" y="175" width="14" height="4" fill="#c4eee2"/>
    <rect x="17" y="174" width="14" height="2" fill="#363344"/>
    <rect x="17" y="169" width="14" height="6" fill="#c4eee2"/>
    <rect x="17" y="172" width="14" height="3" fill="#8ddbc6"/>
    <rect x="15" y="169" width="3" height="3" fill="#dc2626"/>
    <rect x="30" y="169" width="3" height="3" fill="#dc2626"/>
    <rect x="14" y="170" width="3" height="7" fill="#c4eee2"/>
    <rect x="31" y="171" width="3" height="7" fill="#c4eee2"/>
    <rect x="14" y="158" width="20" height="15" fill="#9d174d"/>
    <rect x="15" y="159" width="18" height="13" fill="#f472b6"/>
    <rect x="17" y="164" width="14" height="7" fill="#fbcfe8"/>
  </g>
  <g id="dir-up-f2">
    <ellipse cx="72" cy="188" rx="9" ry="2.5" fill="rgba(15,23,42,0.28)" shape-rendering="geometricPrecision"/>
    <rect x="66" y="178" width="4" height="8" fill="#c4eee2"/>
    <rect x="66" y="185" width="4" height="3" fill="#1e293b"/>
    <rect x="74" y="178" width="4" height="8" fill="#c4eee2"/>
    <rect x="74" y="185" width="4" height="3" fill="#1e293b"/>
    <rect x="65" y="174" width="14" height="4" fill="#c4eee2"/>
    <rect x="65" y="173" width="14" height="2" fill="#363344"/>
    <rect x="65" y="168" width="14" height="6" fill="#c4eee2"/>
    <rect x="65" y="171" width="14" height="3" fill="#8ddbc6"/>
    <rect x="63" y="168" width="3" height="3" fill="#dc2626"/>
    <rect x="78" y="168" width="3" height="3" fill="#dc2626"/>
    <rect x="62" y="169" width="3" height="7" fill="#c4eee2"/>
    <rect x="79" y="169" width="3" height="7" fill="#c4eee2"/>
    <rect x="62" y="157" width="20" height="15" fill="#9d174d"/>
    <rect x="63" y="158" width="18" height="13" fill="#f472b6"/>
    <rect x="65" y="163" width="14" height="7" fill="#fbcfe8"/>
  </g>
  <g id="dir-up-f3">
    <ellipse cx="120" cy="188" rx="9" ry="2.5" fill="rgba(15,23,42,0.28)" shape-rendering="geometricPrecision"/>
    <rect x="113" y="178" width="4" height="7" fill="#8ddbc6"/>
    <rect x="113" y="183" width="4" height="3" fill="#1e293b"/>
    <rect x="123" y="179" width="4" height="8" fill="#c4eee2"/>
    <rect x="123" y="186" width="4" height="3" fill="#1e293b"/>
    <rect x="113" y="175" width="14" height="4" fill="#c4eee2"/>
    <rect x="113" y="174" width="14" height="2" fill="#363344"/>
    <rect x="113" y="169" width="14" height="6" fill="#c4eee2"/>
    <rect x="113" y="172" width="14" height="3" fill="#8ddbc6"/>
    <rect x="111" y="169" width="3" height="3" fill="#dc2626"/>
    <rect x="126" y="169" width="3" height="3" fill="#dc2626"/>
    <rect x="110" y="171" width="3" height="7" fill="#c4eee2"/>
    <rect x="127" y="170" width="3" height="7" fill="#c4eee2"/>
    <rect x="110" y="158" width="20" height="15" fill="#9d174d"/>
    <rect x="111" y="159" width="18" height="13" fill="#f472b6"/>
    <rect x="113" y="164" width="14" height="7" fill="#fbcfe8"/>
  </g>
</svg>